<?xml version="1.0" standalone="no"?><!DOCTYPE svg PUBLIC "-//W3C//DTD SVG 1.1//EN" "http://www.w3.org/Graphics/SVG/1.1/DTD/svg11.dtd"><svg t="1673487215839" class="icon" viewBox="0 0 1024 1024" version="1.1" xmlns="http://www.w3.org/2000/svg" p-id="3026" xmlns:xlink="http://www.w3.org/1999/xlink" width="200" height="200"><path d="M1000 448h-60.728C911.448 260.65 763.35 112.552 576 84.728V24c0-13.254-10.746-24-24-24h-80c-13.254 0-24 10.746-24 24v60.728C260.65 112.552 112.552 260.65 84.728 448H24c-13.254 0-24 10.746-24 24v80c0 13.254 10.746 24 24 24h60.728C112.552 763.35 260.65 911.448 448 939.272V1000c0 13.254 10.746 24 24 24h80c13.254 0 24-10.746 24-24v-60.728C763.35 911.448 911.448 763.35 939.272 576H1000c13.254 0 24-10.746 24-24v-80c0-13.254-10.746-24-24-24zM576 809.268V728c0-13.254-10.746-24-24-24h-80c-13.254 0-24 10.746-24 24v81.268C331.652 784.464 239.566 692.486 214.732 576H296c13.254 0 24-10.746 24-24v-80c0-13.254-10.746-24-24-24h-81.268C239.536 331.652 331.514 239.566 448 214.732V296c0 13.254 10.746 24 24 24h80c13.254 0 24-10.746 24-24v-81.268C692.348 239.536 784.434 331.514 809.268 448H728c-13.254 0-24 10.746-24 24v80c0 13.254 10.746 24 24 24h81.268C784.464 692.348 692.486 784.434 576 809.268zM576 512c0 35.346-28.654 64-64 64s-64-28.654-64-64c0-35.346 28.654-64 64-64s64 28.654 64 64z" p-id="3027" fill="#1296db"></path></svg>